<?xml version="1.0" standalone="no"?>
<!DOCTYPE svg PUBLIC "-//W3C//DTD SVG 20010904//EN"
 "http://www.w3.org/TR/2001/REC-SVG-20010904/DTD/svg10.dtd">
<svg version="1.0" xmlns="http://www.w3.org/2000/svg"
 width="700.000000pt" height="700.000000pt" viewBox="0 0 700.000000 700.000000"
 preserveAspectRatio="xMidYMid meet">
<metadata>
Created by potrace 1.14, written by Peter Selinger 2001-2017
</metadata>
<g transform="translate(0.000000,700.000000) scale(0.100000,-0.100000)"
fill="#000000" stroke="none">
<path d="M2940 6224 c-717 -25 -1529 -81 -1738 -119 -368 -69 -702 -300 -910
-630 -68 -109 -138 -286 -167 -425 -31 -148 -79 -582 -107 -965 -15 -220 -15
-961 0 -1180 29 -396 77 -830 108 -965 121 -532 532 -936 1063 -1045 127 -26
642 -70 1201 -101 385 -21 1443 -30 1852 -15 646 24 1394 80 1578 117 539 110
965 548 1064 1094 32 177 73 558 98 920 15 226 15 944 0 1170 -30 428 -79 847
-117 1007 -73 306 -252 579 -505 769 -104 79 -314 185 -434 219 -49 13 -137
32 -195 40 -191 27 -776 70 -1286 96 -205 10 -1315 20 -1505 13z m1205 -544
c652 -22 1445 -79 1595 -116 36 -8 111 -38 168 -66 220 -108 387 -324 437
-567 18 -86 60 -445 80 -686 22 -255 31 -957 16 -1225 -21 -373 -74 -866 -107
-993 -74 -289 -316 -524 -607 -592 -71 -16 -529 -58 -887 -80 -969 -59 -1839
-56 -2830 11 -377 25 -671 54 -750 74 -303 74 -541 323 -604 630 -19 96 -60
448 -83 710 -22 260 -25 1120 -5 1385 16 206 57 585 77 713 32 198 113 351
260 490 67 64 104 90 187 130 57 28 132 58 168 66 150 37 1084 103 1690 119
272 8 922 6 1195 -3z"/>
<path d="M2630 3495 l0 -1326 23 12 c23 12 2290 1310 2295 1314 2 2 -2291
1317 -2309 1323 -5 2 -9 -555 -9 -1323z m880 199 c179 -102 328 -188 332 -192
6 -6 -650 -392 -667 -392 -3 0 -5 173 -5 385 0 212 3 385 8 385 4 0 153 -84
332 -186z"/>
</g>
</svg>
