<?xml version="1.0"?>
<svg xmlns="http://www.w3.org/2000/svg" xmlns:xlink="http://www.w3.org/1999/xlink" xmlns:svgjs="http://svgjs.com/svgjs" version="1.1" width="512" height="512" x="0" y="0" viewBox="0 0 512 512" style="enable-background:new 0 0 512 512" xml:space="preserve" class=""><g><linearGradient xmlns="http://www.w3.org/2000/svg" id="SVGID_1_" gradientUnits="userSpaceOnUse" x1="256" x2="256" y1="56" y2="456"><stop stop-opacity="1" stop-color="#f28df4" offset="0"/><stop stop-opacity="1" stop-color="#8558f9" offset="1"/></linearGradient><path xmlns="http://www.w3.org/2000/svg" d="m192 353.753v-195.006l170.242 97.503zm40-126.001v56.996l49.758-28.498zm24 228.248c-65.145 0-122.316-4.258-158.806-7.83-46.194-4.521-82.997-39.75-89.5-85.668-5.105-36.055-7.694-71.887-7.694-106.502s2.589-70.447 7.694-106.503c6.503-45.917 43.306-81.145 89.5-85.667 36.49-3.572 93.661-7.83 158.806-7.83s122.316 4.258 158.806 7.83c46.194 4.521 82.997 39.75 89.5 85.668 5.105 36.055 7.694 71.887 7.694 106.502s-2.589 70.447-7.694 106.503c-6.503 45.917-43.306 81.146-89.5 85.667-36.49 3.572-93.661 7.83-158.806 7.83zm0-360c-63.53 0-119.306 4.154-154.909 7.641-27.766 2.718-49.885 23.881-53.791 51.465-4.844 34.204-7.3 68.149-7.3 100.894s2.456 66.69 7.3 100.894c3.906 27.585 26.025 48.748 53.791 51.466 35.603 3.486 91.379 7.64 154.909 7.64s119.306-4.154 154.909-7.641c27.766-2.718 49.885-23.881 53.791-51.465 4.844-34.204 7.3-68.149 7.3-100.894s-2.456-66.69-7.3-100.894c-3.906-27.585-26.025-48.748-53.791-51.466-35.603-3.486-91.379-7.64-154.909-7.64z" fill="url(#SVGID_1_)" data-original="url(#SVGID_1_)" style=""/></g></svg>
